HIERARCHY
ROOT Hips
{
	OFFSET 51.240299 -15.765416 100.627998
	CHANNELS 6 Xposition Yposition Zposition Xrotation Yrotation Zrotation
	JOINT spine
	{
		OFFSET 0.000000 -0.507026 8.817039
		CHANNELS 3 Xrotation Yrotation Zrotation
		JOINT spine1
		{
			OFFSET 0.000000 -0.000002 10.776596
			CHANNELS 3 Xrotation Yrotation Zrotation
			JOINT spine2
			{
				OFFSET 0.000000 -0.000002 10.325897
				CHANNELS 3 Xrotation Yrotation Zrotation
				JOINT Neck
				{
					OFFSET 0.000000 -1.263954 26.511002
					CHANNELS 3 Xrotation Yrotation Zrotation
					JOINT Head
					{
						OFFSET 0.000000 -0.000002 8.009659
						CHANNELS 3 Xrotation Yrotation Zrotation
						End Site
						{
							OFFSET 0.000000 6.393856 19.387894
						}
					}
				}
				JOINT RightShoulder
				{
					OFFSET -4.347950 0.605420 11.151199
					CHANNELS 3 Xrotation Yrotation Zrotation
					JOINT RightArm
					{
						OFFSET 0.000000 -0.000003 14.625793
						CHANNELS 3 Xrotation Yrotation Zrotation
						JOINT RightArmRoll
						{
							OFFSET 0.000000 -0.000001 7.383392
							CHANNELS 3 Xrotation Yrotation Zrotation
							JOINT RightForeArm
							{
								OFFSET 0.000000 -0.000004 21.505203
								CHANNELS 3 Xrotation Yrotation Zrotation
								JOINT RightForeArmRoll
								{
									OFFSET 0.000000 -0.000001 8.285324
									CHANNELS 3 Xrotation Yrotation Zrotation
									JOINT RightHand
									{
										OFFSET 0.000000 -0.000003 16.626801
										CHANNELS 3 Xrotation Yrotation Zrotation
										End Site
										{
											OFFSET 0.000000 0.000000 0.100006
										}
									}
								}
							}
						}
					}
				}
				JOINT LeftShoulder
				{
					OFFSET 4.347950 0.605420 11.151199
					CHANNELS 3 Xrotation Yrotation Zrotation
					JOINT LeftArm
					{
						OFFSET 0.000000 -0.000003 14.625793
						CHANNELS 3 Xrotation Yrotation Zrotation
						JOINT LeftArmRoll
						{
							OFFSET 0.000000 -0.000001 7.383392
							CHANNELS 3 Xrotation Yrotation Zrotation
							JOINT LeftForeArm
							{
								OFFSET 0.000000 -0.000004 21.505203
								CHANNELS 3 Xrotation Yrotation Zrotation
								JOINT LeftForeArmRoll
								{
									OFFSET 0.000000 -0.000001 8.285324
									CHANNELS 3 Xrotation Yrotation Zrotation
									JOINT LeftHand
									{
										OFFSET 0.000000 -0.000003 16.626801
										CHANNELS 3 Xrotation Yrotation Zrotation
										End Site
										{
											OFFSET 0.000000 0.000000 0.100006
										}
									}
								}
							}
						}
					}
				}
			}
		}
	}
	JOINT RightUpLeg
	{
		OFFSET -7.815102 1.202170 -1.433090
		CHANNELS 3 Xrotation Yrotation Zrotation
		JOINT RightUpLegRoll
		{
			OFFSET 0.000000 -0.000003 19.495903
			CHANNELS 3 Xrotation Yrotation Zrotation
			JOINT RightLeg
			{
				OFFSET 0.000000 0.000004 -24.142700
				CHANNELS 3 Xrotation Yrotation Zrotation
				JOINT RightLegRoll
				{
					OFFSET 0.000000 -0.000004 24.221703
					CHANNELS 3 Xrotation Yrotation Zrotation
					JOINT RightFoot
					{
						OFFSET 0.000000 -0.000004 20.160500
						CHANNELS 3 Xrotation Yrotation Zrotation
						JOINT RightToeBase
						{
							OFFSET 0.000000 -0.000003 16.853195
							CHANNELS 3 Xrotation Yrotation Zrotation
							End Site
							{
								OFFSET 0.007145 0.940779 8.161865
							}
						}
					}
				}
			}
		}
	}
	JOINT LeftUpLeg
	{
		OFFSET 7.815102 1.202170 -1.433090
		CHANNELS 3 Xrotation Yrotation Zrotation
		JOINT LeftUpLegRoll
		{
			OFFSET 0.000000 -0.000003 19.496002
			CHANNELS 3 Xrotation Yrotation Zrotation
			JOINT LeftLeg
			{
				OFFSET 0.000000 -0.000004 24.142601
				CHANNELS 3 Xrotation Yrotation Zrotation
				JOINT LeftLegRoll
				{
					OFFSET 0.000000 -0.000005 24.445602
					CHANNELS 3 Xrotation Yrotation Zrotation
					JOINT LeftFoot
					{
						OFFSET 0.000000 -0.000003 19.936600
						CHANNELS 3 Xrotation Yrotation Zrotation
						JOINT LeftToeBase
						{
							OFFSET 0.000000 -0.000003 16.853195
							CHANNELS 3 Xrotation Yrotation Zrotation
							End Site
							{
								OFFSET -0.032013 0.940779 8.161865
							}
						}
					}
				}
			}
		}
	}
}
MOTION
Frames: 13
Frame Time: 0.041667
51.349194 -16.167423 100.636002 -4.727310 -0.037417 1.015136 -2.614930 -0.023771 -0.149895 -1.227099 -0.038023 -0.302081 0.417972 -0.041225 -0.301569 22.804825 -0.379497 0.363917 -3.477002 9.538753 -0.410584 -10.744427 -67.657941 -13.170250 -44.336626 -129.541764 -96.062089 0.000003 -0.000027 0.000000 97.785066 9.328979 -14.573170 0.000002 0.000006 -3.001407 -5.000228 -7.998760 0.000165 -7.375022 57.912177 8.658691 -51.196082 140.363393 87.894351 -0.000002 -0.000008 0.000002 89.628795 -2.692293 6.995676 0.000001 -0.000006 3.002814 -5.000246 7.998892 -0.000135 4.584218 -178.721093 0.108780 -179.999991 0.000006 -1.151005 174.931622 -1.838791 -0.409061 -0.000004 -0.000001 0.038105 68.527370 6.899817 2.149593 25.726888 -7.355642 0.410339 3.454236 177.584399 2.038325 -0.000005 -0.000004 -1.177010 -8.787555 2.120397 0.510999 -0.000000 -0.000000 -0.151620 70.583441 -6.856532 -2.110190 25.988118 7.353961 -0.802136 
51.328590 -16.172821 100.637001 -4.723381 -0.034129 1.016250 -2.614781 -0.024161 -0.149995 -1.226800 -0.039496 -0.303369 0.418267 -0.042646 -0.302833 22.835423 -0.378952 0.344241 -3.580414 9.551135 -0.422493 -10.802092 -67.651139 -13.234677 -44.414719 -129.513091 -95.944685 0.000002 -0.000024 0.000001 97.822065 9.320386 -14.576600 0.000001 0.000004 -3.001413 -5.000233 -7.998760 0.000162 -7.393214 57.907109 8.679750 -51.254467 140.235559 87.861819 0.000002 -0.000008 -0.000001 89.646779 -2.718003 7.012623 -0.000004 -0.000004 3.002810 -5.000252 7.998893 -0.000139 4.580494 -178.728087 0.102794 -179.999991 0.000006 -1.151005 174.932920 -1.835801 -0.409752 -0.000004 -0.000001 0.038105 68.529357 6.899772 2.149660 25.721437 -7.355640 0.402162 3.449424 177.578389 2.036077 -0.000005 -0.000004 -1.177090 -8.786999 2.119551 0.511035 0.000000 -0.000000 -0.151639 70.582977 -6.856425 -2.110200 25.987415 7.353961 -0.800873 
51.335991 -16.167519 100.637993 -4.718544 -0.030761 1.017621 -2.615010 -0.024494 -0.150082 -1.227260 -0.040843 -0.304660 0.417808 -0.043957 -0.304100 22.869328 -0.381444 0.324876 -3.685515 9.566072 -0.434277 -10.862828 -67.644110 -13.302543 -44.498607 -129.483871 -95.831830 0.000004 -0.000026 -0.000003 97.860239 9.311707 -14.582133 0.000002 0.000006 -3.001399 -5.000227 -7.998761 0.000165 -7.407969 57.901822 8.696710 -51.312834 140.104324 87.817375 -0.000000 -0.000006 0.000001 89.665713 -2.744373 7.029295 0.000002 -0.000007 3.002813 -5.000250 7.998893 -0.000134 4.575669 -178.735040 0.096618 -179.999991 0.000006 -1.151005 174.933876 -1.832810 -0.409456 -0.000004 -0.000001 0.038105 68.531366 6.899804 2.149640 25.715980 -7.355640 0.393854 3.443632 177.573389 2.033942 -0.000005 -0.000004 -1.177160 -8.786354 2.118724 0.511068 -0.000000 -0.000000 -0.151657 70.582321 -6.856386 -2.110233 25.986708 7.353959 -0.799621 
51.345993 -16.156422 100.637993 -4.712833 -0.027323 1.019248 -2.615599 -0.024792 -0.150152 -1.228450 -0.042087 -0.305922 0.416622 -0.045183 -0.305342 22.905748 -0.386276 0.305755 -3.790968 9.582378 -0.445955 -10.925157 -67.637062 -13.372216 -44.587553 -129.453764 -95.722280 0.000002 -0.000023 -0.000001 97.900428 9.303562 -14.586854 0.000002 0.000006 -3.001399 -5.000228 -7.998765 0.000163 -7.419141 57.896358 8.709391 -51.372879 139.969701 87.763286 0.000000 -0.000008 0.000003 89.685151 -2.770620 7.045083 -0.000001 -0.000004 3.002812 -5.000245 7.998891 -0.000137 4.569777 -178.742007 0.090318 -179.999991 0.000006 -1.151005 174.934614 -1.829832 -0.409168 -0.000005 -0.000001 0.038105 68.533462 6.899769 2.149701 25.710423 -7.355636 0.385468 3.436851 177.567378 2.031839 -0.000005 -0.000004 -1.177210 -8.785689 2.117938 0.511101 0.000001 -0.000000 -0.151675 70.581665 -6.856311 -2.110162 25.985996 7.353957 -0.798369 
51.329292 -16.162724 100.629005 -4.706293 -0.023824 1.021149 -2.616541 -0.025074 -0.150195 -1.230330 -0.043249 -0.307124 0.414743 -0.046354 -0.306523 22.943768 -0.392751 0.286807 -3.895452 9.598837 -0.457591 -10.987595 -67.630067 -13.442032 -44.683248 -129.420214 -95.617778 0.000001 -0.000028 0.000002 97.944243 9.296154 -14.593913 0.000002 0.000006 -3.001399 -5.000231 -7.998760 0.000162 -7.426557 57.890484 8.717619 -51.433790 139.834258 87.697471 -0.000002 -0.000005 0.000002 89.704733 -2.796013 7.059394 -0.000001 -0.000004 3.002814 -5.000251 7.998894 -0.000137 4.562882 -178.748974 0.083963 -179.999991 0.000006 -1.151005 174.935188 -1.826840 -0.408884 -0.000005 -0.000001 0.038105 68.535471 6.899800 2.149681 25.704867 -7.355633 0.377074 3.429061 177.561354 2.029852 -0.000005 -0.000004 -1.177230 -8.785023 2.117180 0.511134 0.000001 -0.000000 -0.151693 70.580887 -6.856238 -2.110198 25.985197 7.353964 -0.797124 
51.316093 -16.161219 100.628990 -4.698931 -0.020272 1.023334 -2.617807 -0.025363 -0.150207 -1.232870 -0.044353 -0.308231 0.412196 -0.047495 -0.307611 22.982690 -0.400166 0.267959 -3.997626 9.614258 -0.469251 -11.048794 -67.623442 -13.510467 -44.782176 -129.384902 -95.513468 0.000004 -0.000028 0.000003 97.992881 9.290130 -14.603465 -0.000000 0.000005 -3.001400 -5.000229 -7.998763 0.000162 -7.430147 57.884460 8.721304 -51.497475 139.698105 87.622216 -0.000002 -0.000006 0.000002 89.724042 -2.819681 7.071610 -0.000001 -0.000006 3.002812 -5.000250 7.998893 -0.000135 4.555021 -178.755941 0.077614 -179.999991 0.000006 -1.151005 174.935652 -1.823862 -0.408606 -0.000004 -0.000001 0.038105 68.537362 6.899786 2.149762 25.699311 -7.355636 0.368743 3.420260 177.555357 2.028009 -0.000005 -0.000004 -1.177230 -8.784420 2.116463 0.511167 0.000000 -0.000000 -0.151711 70.580026 -6.856196 -2.110143 25.984485 7.353963 -0.795901 
51.312992 -16.158720 100.635994 -4.690799 -0.016676 1.025811 -2.619399 -0.025678 -0.150181 -1.236062 -0.045420 -0.309211 0.409015 -0.048635 -0.308575 23.021714 -0.407821 0.249138 -4.096143 9.627429 -0.481018 -11.107302 -67.617377 -13.575937 -44.886794 -129.344535 -95.412381 0.000002 -0.000026 -0.000003 98.047707 9.285647 -14.618633 -0.000001 0.000007 -3.001388 -5.000228 -7.998765 0.000161 -7.429767 57.878156 8.720269 -51.564189 139.562485 87.537426 -0.000002 -0.000007 0.000001 89.742675 -2.840828 7.081214 -0.000002 -0.000003 3.002810 -5.000249 7.998893 -0.000134 4.546245 -178.762907 0.071342 -179.999991 0.000006 -1.151005 174.936062 -1.820869 -0.408328 -0.000005 -0.000001 0.038105 68.539043 6.899794 2.149757 25.693959 -7.355629 0.360569 3.410443 177.550344 2.026390 -0.000005 -0.000005 -1.177200 -8.783926 2.115764 0.511198 -0.000000 -0.000000 -0.151728 70.579159 -6.856152 -2.110090 25.983780 7.353961 -0.794689 
51.310993 -16.159220 100.633995 -4.681918 -0.013046 1.028601 -2.621291 -0.026039 -0.150111 -1.239839 -0.046472 -0.310033 0.405228 -0.049801 -0.309380 23.060035 -0.415017 0.230266 -4.189687 9.637132 -0.492973 -11.161703 -67.612090 -13.636836 -44.994793 -129.300221 -95.310919 0.000001 -0.000026 0.000000 98.109759 9.283438 -14.637534 0.000000 0.000008 -3.001391 -5.000226 -7.998763 0.000161 -7.425302 57.871694 8.714388 -51.634519 139.428763 87.443299 0.000001 -0.000009 -0.000002 89.760222 -2.858719 7.087511 0.000001 -0.000006 3.002810 -5.000247 7.998894 -0.000137 4.536602 -178.768863 0.065290 -179.999991 0.000006 -1.151005 174.936472 -1.818884 -0.408139 -0.000005 -0.000001 0.038105 68.540525 6.899788 2.149765 25.688702 -7.355625 0.352611 3.399606 177.544320 2.024908 -0.000005 -0.000004 -1.177120 -8.783560 2.115103 0.511229 0.000001 -0.000000 -0.151745 70.578401 -6.856076 -2.110123 25.982967 7.353966 -0.793504 
51.304291 -16.155823 100.642990 -4.672320 -0.009389 1.031712 -2.623471 -0.026468 -0.149993 -1.244200 -0.047533 -0.310662 0.400870 -0.051020 -0.309994 23.096758 -0.421050 0.211264 -4.276913 9.642170 -0.505192 -11.210579 -67.607774 -13.691579 -45.105763 -129.250607 -95.208336 0.000003 -0.000023 0.000002 98.180288 9.283734 -14.661317 0.000001 0.000009 -3.001388 -5.000229 -7.998765 0.000165 -7.416628 57.865076 8.703514 -51.708992 139.298348 87.339910 -0.000001 -0.000004 0.000002 89.776280 -2.872547 7.089895 -0.000003 -0.000007 3.002810 -5.000252 7.998893 -0.000136 4.526147 -178.775830 0.059366 -179.999991 0.000006 -1.151005 174.936977 -1.816885 -0.408943 -0.000004 -0.000001 0.038105 68.541577 6.899786 2.149799 25.683545 -7.355621 0.344921 3.387738 177.539306 2.023721 -0.000005 -0.000004 -1.177010 -8.783398 2.114481 0.511260 -0.000000 -0.000000 -0.151762 70.577636 -6.856036 -2.110163 25.982263 7.353955 -0.792347 
51.318592 -16.142521 100.639999 -4.662051 -0.005716 1.035164 -2.625921 -0.026985 -0.149818 -1.249100 -0.048623 -0.311067 0.395967 -0.052320 -0.310386 23.131173 -0.425217 0.192053 -4.356456 9.641309 -0.517799 -11.252535 -67.604741 -13.738627 -45.219834 -129.194626 -95.104606 0.000002 -0.000027 0.000001 98.260782 9.286966 -14.692106 0.000000 0.000009 -3.001381 -5.000228 -7.998762 0.000165 -7.403596 57.858225 8.687481 -51.789209 139.171211 87.229200 0.000000 -0.000007 0.000002 89.790452 -2.881546 7.087823 -0.000002 -0.000005 3.002809 -5.000249 7.998899 -0.000137 4.514935 -178.781800 0.053794 -179.999991 0.000006 -1.149994 174.937619 -1.815894 -0.408834 -0.000004 -0.000001 0.038105 68.542212 6.899794 2.149761 25.678807 -7.355623 0.337626 3.374828 177.534279 2.022782 -0.000005 -0.000004 -1.176850 -8.783454 2.113889 0.511288 0.000000 -0.000000 -0.151778 70.576987 -6.855997 -2.110098 25.981454 7.353959 -0.791222 
51.314594 -16.141619 100.639992 -4.650523 -0.001881 1.039207 -2.628958 -0.027562 -0.149578 -1.255171 -0.049674 -0.311309 0.389900 -0.053662 -0.310615 23.167486 -0.429844 0.172700 -4.431711 9.636844 -0.530735 -11.290625 -67.604195 -13.781448 -45.339994 -129.130313 -95.007091 0.000004 -0.000026 0.000000 98.350810 9.293712 -14.731967 -0.000000 0.000010 -3.001381 -5.000228 -7.998765 0.000162 -7.383071 57.851491 8.662591 -51.874153 139.043623 87.104323 -0.000000 -0.000009 0.000002 89.803928 -2.886794 7.081661 -0.000000 -0.000005 3.002811 -5.000250 7.998894 -0.000136 4.502294 -178.787756 0.048328 -179.999991 0.000006 -1.149994 174.938288 -1.814902 -0.408726 -0.000004 -0.000001 0.038105 68.542540 6.899817 2.149745 25.674051 -7.355623 0.330440 3.360203 177.528255 2.022009 -0.000005 -0.000004 -1.176630 -8.783812 2.113343 0.511317 0.000000 -0.000000 -0.151794 70.576352 -6.855987 -2.110134 25.980643 7.353966 -0.790117 
51.317192 -16.140320 100.643990 -4.637261 0.002229 1.044031 -2.632831 -0.028156 -0.149271 -1.262890 -0.050608 -0.311471 0.382180 -0.054987 -0.310765 23.209411 -0.437454 0.153352 -4.506686 9.631829 -0.543909 -11.328715 -67.606777 -13.824445 -45.468699 -129.057763 -94.921960 0.000005 -0.000026 -0.000001 98.448427 9.304430 -14.778731 0.000002 0.000009 -3.001383 -5.000232 -7.998767 0.000162 -7.352840 57.845022 8.626235 -51.960507 138.912442 86.957413 0.000001 -0.000005 0.000000 89.818046 -2.889726 7.072710 0.000000 -0.000003 3.002813 -5.000254 7.998896 -0.000137 4.487679 -178.793712 0.042767 -179.999991 0.000006 -1.149994 174.938780 -1.814904 -0.407713 -0.000005 -0.000001 0.038105 68.542738 6.899796 2.149727 25.669200 -7.355619 0.323088 3.343358 177.523201 2.021504 -0.000005 -0.000004 -1.176360 -8.784458 2.112825 0.511346 0.000001 -0.000000 -0.151810 70.575798 -6.855950 -2.110162 25.979835 7.353961 -0.789018 
51.316391 -16.134724 100.641998 -4.622480 0.006566 1.049511 -2.637419 -0.028763 -0.148905 -1.272040 -0.051436 -0.311549 0.373032 -0.056290 -0.310837 23.256152 -0.447635 0.134047 -4.581005 9.626247 -0.557268 -11.366654 -67.611810 -13.867381 -45.604729 -128.978560 -94.846513 0.000002 -0.000026 -0.000002 98.552970 9.318182 -14.832324 0.000001 0.000009 -3.001372 -5.000229 -7.998763 0.000161 -7.314278 57.838622 8.580035 -52.048412 138.777682 86.791555 -0.000002 -0.000008 -0.000001 89.832622 -2.890712 7.060980 -0.000001 -0.000004 3.002813 -5.000248 7.998889 -0.000138 4.471316 -178.799668 0.037130 -179.999991 0.000006 -1.148996 174.939094 -1.814904 -0.407702 -0.000004 -0.000001 0.038105 68.542738 6.899795 2.149727 25.664262 -7.355624 0.315633 3.324574 177.518174 2.021186 -0.000005 -0.000005 -1.176040 -8.785337 2.112345 0.511374 -0.000000 -0.000000 -0.151826 70.575266 -6.855945 -2.110094 25.979036 7.353965 -0.787922 
